<?xml version="1.0" standalone="no"?>
<!DOCTYPE svg PUBLIC "-//W3C//DTD SVG 20010904//EN"
 "http://www.w3.org/TR/2001/REC-SVG-20010904/DTD/svg10.dtd">
<svg version="1.0" xmlns="http://www.w3.org/2000/svg"
 width="419.000000pt" height="50.000000pt" viewBox="0 0 419.000000 50.000000"
 preserveAspectRatio="xMidYMid meet">

<g transform="translate(0.000000,50.000000) scale(0.100000,-0.100000)"
fill="#000000" stroke="none">
<path d="M197 486 c-66 -18 -126 -62 -162 -121 -28 -45 -30 -56 -34 -167 l-3
-118 34 0 c40 0 68 -25 68 -60 0 -22 1 -23 100 -18 85 4 109 9 157 34 64 33
116 93 133 152 5 20 10 83 10 140 l0 102 -34 0 c-52 0 -66 9 -66 41 l0 29 -77
-1 c-43 0 -100 -6 -126 -13z m209 -123 c-3 -8 -1 -11 4 -8 15 9 40 -58 40
-107 -1 -81 -48 -152 -122 -183 -56 -23 -152 -17 -143 8 3 7 -12 20 -33 29
l-37 17 30 -24 c17 -14 26 -25 22 -25 -14 0 -57 32 -57 42 0 14 81 110 87 104
3 -3 -2 -12 -10 -21 -36 -35 19 -86 77 -71 38 9 32 26 -7 19 -23 -3 -37 0 -46
11 -17 20 -7 46 18 46 28 0 37 20 12 27 -12 3 -21 9 -21 13 0 19 13 40 25 40
7 0 18 7 25 15 7 8 16 12 21 9 5 -3 9 2 9 11 0 8 6 18 14 21 8 3 16 14 19 25
6 24 47 41 65 26 7 -6 11 -16 8 -24z m-186 -8 c-7 -9 -15 -13 -17 -11 -7 7 7
26 19 26 6 0 6 -6 -2 -15z"/>
<path d="M223 63 c9 -2 25 -2 35 0 9 3 1 5 -18 5 -19 0 -27 -2 -17 -5z"/>
<path d="M580 365 c0 -119 2 -135 17 -135 16 0 279 206 317 249 l19 21 -176 0
-177 0 0 -135z"/>
<path d="M1050 488 c0 -17 61 -181 72 -195 6 -7 8 -19 5 -27 -9 -24 22 -56 54
-56 24 0 65 27 187 124 87 68 166 133 176 145 l19 21 -256 0 c-191 0 -257 -3
-257 -12z"/>
<path d="M1636 468 c-4 -18 -10 -53 -14 -78 -8 -47 -22 -77 -55 -122 -30 -41
-18 -56 51 -60 l60 -3 168 135 c92 75 169 141 172 148 3 9 -41 12 -186 12
l-190 0 -6 -32z"/>
<path d="M2180 476 c0 -14 -4 -28 -10 -31 -5 -3 -10 -25 -10 -48 0 -69 -18
-159 -36 -178 -14 -16 -15 -24 -6 -44 10 -21 18 -25 58 -25 41 0 54 6 123 62
243 196 321 262 321 274 0 11 -40 14 -220 14 l-220 0 0 -24z"/>
<path d="M2770 471 c0 -16 -7 -34 -15 -41 -9 -8 -15 -30 -15 -60 0 -33 -6 -55
-21 -74 -32 -41 -22 -60 32 -64 46 -3 48 -2 208 128 88 72 161 133 161 135 0
3 -79 5 -175 5 l-175 0 0 -29z"/>
<path d="M3313 489 c-7 -7 -3 -28 14 -71 24 -57 24 -63 10 -99 -14 -36 -14
-41 2 -60 27 -33 52 -21 196 96 93 76 137 105 157 105 37 0 43 -28 19 -81 -25
-58 -44 -141 -35 -162 4 -12 18 -17 47 -17 36 0 53 11 184 118 80 64 153 123
164 131 10 7 19 22 19 32 0 18 -15 19 -383 19 -256 0 -387 -4 -394 -11z"/>
</g>
</svg>
